<svg width="1440" height="900" viewBox="0 0 1440 900" fill="none" xmlns="http://www.w3.org/2000/svg">
  <rect width="1440" height="900" rx="32" fill="#07141F"/>
  <rect x="32" y="32" width="1376" height="836" rx="24" fill="url(#bg)"/>
  <rect x="96" y="120" width="500" height="220" rx="28" fill="#FFF7ED" fill-opacity="0.96"/>
  <rect x="118" y="144" width="130" height="32" rx="16" fill="#FED7AA"/>
  <rect x="118" y="198" width="356" height="24" rx="12" fill="#0F172A"/>
  <rect x="118" y="240" width="420" height="18" rx="9" fill="#94A3B8"/>
  <rect x="118" y="274" width="280" height="18" rx="9" fill="#CBD5E1"/>
  <rect x="118" y="302" width="162" height="16" rx="8" fill="#FB923C"/>
  <rect x="642" y="120" width="702" height="304" rx="28" fill="#0F172A" fill-opacity="0.82" stroke="#334155"/>
  <rect x="678" y="160" width="180" height="28" rx="14" fill="#1D4ED8"/>
  <rect x="678" y="214" width="428" height="18" rx="9" fill="#E2E8F0"/>
  <rect x="678" y="246" width="560" height="18" rx="9" fill="#94A3B8"/>
  <rect x="678" y="278" width="496" height="18" rx="9" fill="#64748B"/>
  <rect x="678" y="330" width="292" height="44" rx="22" fill="#F97316"/>
  <rect x="96" y="392" width="404" height="340" rx="28" fill="#082F49" stroke="#0EA5E9"/>
  <rect x="136" y="434" width="176" height="24" rx="12" fill="#38BDF8"/>
  <rect x="136" y="486" width="312" height="14" rx="7" fill="#E0F2FE"/>
  <rect x="136" y="522" width="220" height="72" rx="18" fill="#0EA5E9" fill-opacity="0.24"/>
  <rect x="136" y="612" width="268" height="72" rx="18" fill="#0EA5E9" fill-opacity="0.18"/>
  <rect x="540" y="470" width="804" height="262" rx="28" fill="#111827" stroke="#374151"/>
  <rect x="580" y="512" width="148" height="24" rx="12" fill="#34D399"/>
  <rect x="580" y="560" width="216" height="74" rx="18" fill="#14532D"/>
  <rect x="822" y="560" width="216" height="74" rx="18" fill="#7C2D12"/>
  <rect x="1064" y="560" width="216" height="74" rx="18" fill="#1E3A8A"/>
  <rect x="580" y="658" width="660" height="16" rx="8" fill="#9CA3AF"/>
  <defs>
    <linearGradient id="bg" x1="32" y1="32" x2="1408" y2="868" gradientUnits="userSpaceOnUse">
      <stop stop-color="#10253B"/>
      <stop offset="1" stop-color="#241C15"/>
    </linearGradient>
  </defs>
</svg>
